<?xml version="1.0" encoding="utf-8"?>
<svg version="1.1" xmlns:xlink="http://www.w3.org/1999/xlink" width="76px" height="64px" xmlns="http://www.w3.org/2000/svg">
  <g transform="matrix(1 0 0 1 -85 -197 )">
    <path d="M 74.6270967741935 8.83501683501684  C 75.5423655913979 9.84062850729517  76 11.0617283950617  76 12.4983164983165  C 76 13.9349046015713  75.5423655913979 15.1560044893378  74.6270967741935 16.1616161616162  L 39.1277419354839 55.1649831649832  L 32.4593548387097 62.4915824915825  C 31.5440860215054 63.4971941638608  30.432688172043 64  29.1251612903226 64  C 27.8176344086021 64  26.7062365591398 63.4971941638608  25.7909677419355 62.4915824915825  L 19.1225806451613 55.1649831649832  L 1.37290322580645 35.6632996632997  C 0.457634408602151 34.6576879910213  0 33.4365881032548  0 32  C 0 30.5634118967452  0.457634408602151 29.3423120089787  1.37290322580645 28.3367003367003  L 8.04129032258064 21.010101010101  C 8.95655913978495 20.0044893378227  10.0679569892473 19.5016835016835  11.3754838709677 19.5016835016835  C 12.6830107526882 19.5016835016835  13.7944086021505 20.0044893378227  14.7096774193548 21.010101010101  L 29.1251612903226 36.9023569023569  L 61.2903225806452 1.50841750841751  C 62.2055913978495 0.502805836139167  63.3169892473118 0  64.6245161290323 0  C 65.9320430107527 0  67.0434408602151 0.502805836139167  67.9587096774194 1.50841750841751  L 74.6270967741935 8.83501683501684  Z " fill-rule="nonzero" fill="#11d175" stroke="none" transform="matrix(1 0 0 1 85 197 )" />
  </g>
</svg>