<?xml version="1.0" encoding="utf-8"?>
<svg version="1.1" xmlns:xlink="http://www.w3.org/1999/xlink" width="24px" height="23px" xmlns="http://www.w3.org/2000/svg">
  <g transform="matrix(1 0 0 1 -138 -285 )">
    <path d="M 19.4829545454545 10.6015625  C 19.5852272727273 10.6995738636364  19.6363636363636 10.8248106060606  19.6363636363636 10.9772727272727  L 19.6363636363636 12.0227272727273  C 19.6363636363636 12.1751893939394  19.5852272727273 12.3004261363636  19.4829545454545 12.3984375  C 19.3806818181818 12.4964488636364  19.25 12.5454545454545  19.0909090909091 12.5454545454545  L 13.0909090909091 12.5454545454545  L 13.0909090909091 18.2954545454545  C 13.0909090909091 18.4479166666667  13.0397727272727 18.5731534090909  12.9375 18.6711647727273  C 12.8352272727273 18.7691761363636  12.7045454545455 18.8181818181818  12.5454545454545 18.8181818181818  L 11.4545454545455 18.8181818181818  C 11.2954545454545 18.8181818181818  11.1647727272727 18.7691761363636  11.0625 18.6711647727273  C 10.9602272727273 18.5731534090909  10.9090909090909 18.4479166666667  10.9090909090909 18.2954545454545  L 10.9090909090909 12.5454545454545  L 4.90909090909091 12.5454545454545  C 4.75 12.5454545454545  4.61931818181818 12.4964488636364  4.51704545454545 12.3984375  C 4.41477272727273 12.3004261363636  4.36363636363636 12.1751893939394  4.36363636363636 12.0227272727273  L 4.36363636363636 10.9772727272727  C 4.36363636363636 10.8248106060606  4.41477272727273 10.6995738636364  4.51704545454545 10.6015625  C 4.61931818181818 10.5035511363636  4.75 10.4545454545455  4.90909090909091 10.4545454545455  L 10.9090909090909 10.4545454545455  L 10.9090909090909 4.70454545454546  C 10.9090909090909 4.55208333333333  10.9602272727273 4.42684659090909  11.0625 4.32883522727273  C 11.1647727272727 4.23082386363636  11.2954545454545 4.18181818181818  11.4545454545455 4.18181818181818  L 12.5454545454545 4.18181818181818  C 12.7045454545455 4.18181818181818  12.8352272727273 4.23082386363636  12.9375 4.32883522727273  C 13.0397727272727 4.42684659090909  13.0909090909091 4.55208333333333  13.0909090909091 4.70454545454546  L 13.0909090909091 10.4545454545455  L 19.0909090909091 10.4545454545455  C 19.25 10.4545454545455  19.3806818181818 10.5035511363636  19.4829545454545 10.6015625  Z M 21.0170454545455 20.1413352272727  C 21.5511363636364 19.6294981060606  21.8181818181818 19.0142045454545  21.8181818181818 18.2954545454545  L 21.8181818181818 4.70454545454546  C 21.8181818181818 3.98579545454546  21.5511363636364 3.37050189393939  21.0170454545455 2.85866477272727  C 20.4829545454545 2.34682765151515  19.8409090909091 2.09090909090909  19.0909090909091 2  L 4.90909090909091 2  C 4.15909090909091 2.09090909090909  3.51704545454546 2.34682765151515  2.98295454545455 2.85866477272727  C 2.44886363636364 3.37050189393939  2.18181818181818 3.98579545454546  2.18181818181818 4.70454545454546  L 2.18181818181818 18.2954545454545  C 2.18181818181818 19.0142045454545  2.44886363636364 19.6294981060606  2.98295454545455 20.1413352272727  C 3.51704545454546 20.6531723484848  4.15909090909091 20.9090909090909  4.90909090909091 21  L 19.0909090909091 21  C 19.8409090909091 20.9090909090909  20.4829545454545 20.6531723484848  21.0170454545455 20.1413352272727  Z M 22.5596590909091 1.38032670454546  C 23.5198863636364 2.30054450757576  24 3.40861742424242  24 4.70454545454546  L 24 18.2954545454545  C 24 19.5913825757576  23.5198863636364 20.6994554924242  22.5596590909091 21.6196732954545  C 21.5994318181818 22.5398910984848  20.4431818181818 23  19.0909090909091 23  L 4.90909090909091 23  C 3.55681818181818 23  2.40056818181818 22.5398910984848  1.44034090909091 21.6196732954545  C 0.480113636363636 20.6994554924242  0 19.5913825757576  0 18.2954545454545  L 0 4.70454545454546  C 0 3.40861742424242  0.480113636363636 2.30054450757576  1.44034090909091 1.38032670454546  C 2.40056818181818 0.460108901515149  3.55681818181818 0  4.90909090909091 0  L 19.0909090909091 0  C 20.4431818181818 0  21.5994318181818 0.460108901515149  22.5596590909091 1.38032670454546  Z " fill-rule="nonzero" fill="#000000" stroke="none" transform="matrix(1 0 0 1 138 285 )" />
  </g>
</svg>